<mxfile host="app.diagrams.net" modified="2021-04-19T05:18:41.256Z" agent="5.0 (Windows NT 10.0; Win64; x64) AppleWebKit/537.36 (KHTML, like Gecko) Chrome/89.0.4389.128 Safari/537.36 Edg/89.0.774.77" etag="fX_oKOEb2mDdkKfEz8F-" version="14.3.0" type="github">
  <diagram id="ntPkPRsSKO8tKGjRleYM" name="Page-1">
    <mxGraphModel dx="2730" dy="2347" grid="1" gridSize="10" guides="1" tooltips="1" connect="1" arrows="1" fold="1" page="1" pageScale="1" pageWidth="827" pageHeight="1169" math="0" shadow="0">
      <root>
        <mxCell id="0" />
        <mxCell id="1" parent="0" />
        <mxCell id="u7R29UACgoj_BLkv8fJI-2" value="ADMIN" style="shape=umlActor;html=1;verticalLabelPosition=bottom;verticalAlign=top;align=center;" vertex="1" parent="1">
          <mxGeometry x="93" y="604" width="30" height="60" as="geometry" />
        </mxCell>
        <mxCell id="u7R29UACgoj_BLkv8fJI-3" value="Mar" style="strokeWidth=1;fontStyle=0;html=1;gradientColor=#b3b3b3;fillColor=#f5f5f5;strokeColor=#666666;" vertex="1" parent="1">
          <mxGeometry x="-347" y="503" width="120" height="20" as="geometry" />
        </mxCell>
        <mxCell id="u7R29UACgoj_BLkv8fJI-4" value="Apr" style="strokeWidth=1;fontStyle=0;html=1;gradientColor=#b3b3b3;fillColor=#f5f5f5;strokeColor=#666666;" vertex="1" parent="1">
          <mxGeometry x="-227" y="503" width="120" height="20" as="geometry" />
        </mxCell>
        <mxCell id="u7R29UACgoj_BLkv8fJI-5" value="May" style="strokeWidth=1;fontStyle=0;html=1;gradientColor=#b3b3b3;fillColor=#f5f5f5;strokeColor=#666666;" vertex="1" parent="1">
          <mxGeometry x="-107" y="503" width="120" height="20" as="geometry" />
        </mxCell>
        <mxCell id="u7R29UACgoj_BLkv8fJI-6" value="June" style="strokeWidth=1;fontStyle=0;html=1;gradientColor=#b3b3b3;fillColor=#f5f5f5;strokeColor=#666666;" vertex="1" parent="1">
          <mxGeometry x="13" y="503" width="120" height="20" as="geometry" />
        </mxCell>
        <mxCell id="u7R29UACgoj_BLkv8fJI-7" value="Feb" style="strokeWidth=1;fontStyle=0;html=1;gradientColor=#b3b3b3;fillColor=#f5f5f5;strokeColor=#666666;" vertex="1" parent="1">
          <mxGeometry x="-467" y="503" width="120" height="20" as="geometry" />
        </mxCell>
        <mxCell id="u7R29UACgoj_BLkv8fJI-8" value="" style="align=left;strokeColor=#CCCCCC;html=1;" vertex="1" parent="1">
          <mxGeometry x="-587" y="543" width="120" height="20" as="geometry" />
        </mxCell>
        <mxCell id="u7R29UACgoj_BLkv8fJI-9" value="Jan" style="strokeWidth=1;fontStyle=0;html=1;gradientColor=#b3b3b3;fillColor=#f5f5f5;strokeColor=#666666;" vertex="1" parent="1">
          <mxGeometry x="-587" y="503" width="120" height="20" as="geometry" />
        </mxCell>
        <mxCell id="u7R29UACgoj_BLkv8fJI-10" value="" style="align=left;strokeColor=#CCCCCC;html=1;" vertex="1" parent="1">
          <mxGeometry x="-587" y="563" width="120" height="20" as="geometry" />
        </mxCell>
        <mxCell id="u7R29UACgoj_BLkv8fJI-11" value="" style="align=left;strokeColor=#CCCCCC;html=1;" vertex="1" parent="1">
          <mxGeometry x="-587" y="583" width="120" height="20" as="geometry" />
        </mxCell>
        <mxCell id="u7R29UACgoj_BLkv8fJI-12" value="" style="align=left;strokeColor=#CCCCCC;html=1;" vertex="1" parent="1">
          <mxGeometry x="-587" y="603" width="120" height="20" as="geometry" />
        </mxCell>
        <mxCell id="u7R29UACgoj_BLkv8fJI-13" value="" style="align=left;strokeColor=#CCCCCC;html=1;" vertex="1" parent="1">
          <mxGeometry x="-587" y="623" width="120" height="20" as="geometry" />
        </mxCell>
        <mxCell id="u7R29UACgoj_BLkv8fJI-14" value="" style="align=left;strokeColor=#CCCCCC;html=1;" vertex="1" parent="1">
          <mxGeometry x="-587" y="643" width="120" height="20" as="geometry" />
        </mxCell>
        <mxCell id="u7R29UACgoj_BLkv8fJI-15" value="&lt;span style=&quot;color: rgba(0 , 0 , 0 , 0) ; font-family: monospace ; font-size: 0px&quot;&gt;%3CmxGraphModel%3E%3Croot%3E%3CmxCell%20id%3D%220%22%2F%3E%3CmxCell%20id%3D%221%22%20parent%3D%220%22%2F%3E%3CmxCell%20id%3D%222%22%20value%3D%22%22%20style%3D%22align%3Dleft%3BstrokeColor%3D%23CCCCCC%3Bhtml%3D1%3B%22%20vertex%3D%221%22%20parent%3D%221%22%3E%3CmxGeometry%20x%3D%22160%22%20y%3D%22619%22%20width%3D%22120%22%20height%3D%2220%22%20as%3D%22geometry%22%2F%3E%3C%2FmxCell%3E%3C%2Froot%3E%3C%2FmxGraphModel%3E&lt;/span&gt;&lt;span style=&quot;color: rgba(0 , 0 , 0 , 0) ; font-family: monospace ; font-size: 0px&quot;&gt;%3CmxGraphModel%3E%3Croot%3E%3CmxCell%20id%3D%220%22%2F%3E%3CmxCell%20id%3D%221%22%20parent%3D%220%22%2F%3E%3CmxCell%20id%3D%222%22%20value%3D%22%22%20style%3D%22align%3Dleft%3BstrokeColor%3D%23CCCCCC%3Bhtml%3D1%3B%22%20vertex%3D%221%22%20parent%3D%221%22%3E%3CmxGeometry%20x%3D%22160%22%20y%3D%22619%22%20width%3D%22120%22%20height%3D%2220%22%20as%3D%22geometry%22%2F%3E%3C%2FmxCell%3E%3C%2Froot%3E%3C%2FmxGraphModel%3E&lt;/span&gt;" style="align=left;strokeColor=#CCCCCC;html=1;" vertex="1" parent="1">
          <mxGeometry x="-587" y="663" width="120" height="20" as="geometry" />
        </mxCell>
        <mxCell id="u7R29UACgoj_BLkv8fJI-16" value="" style="align=left;strokeColor=#CCCCCC;html=1;" vertex="1" parent="1">
          <mxGeometry x="-587" y="683" width="120" height="20" as="geometry" />
        </mxCell>
        <mxCell id="u7R29UACgoj_BLkv8fJI-17" value="" style="align=left;strokeColor=#CCCCCC;html=1;" vertex="1" parent="1">
          <mxGeometry x="-587" y="703" width="120" height="20" as="geometry" />
        </mxCell>
        <mxCell id="u7R29UACgoj_BLkv8fJI-18" value="" style="align=left;strokeColor=#CCCCCC;html=1;" vertex="1" parent="1">
          <mxGeometry x="-587" y="723" width="120" height="20" as="geometry" />
        </mxCell>
        <mxCell id="u7R29UACgoj_BLkv8fJI-19" value="" style="align=left;strokeColor=#CCCCCC;html=1;" vertex="1" parent="1">
          <mxGeometry x="-587" y="743" width="120" height="20" as="geometry" />
        </mxCell>
        <mxCell id="u7R29UACgoj_BLkv8fJI-20" value="" style="align=left;strokeColor=#CCCCCC;html=1;" vertex="1" parent="1">
          <mxGeometry x="-587" y="763" width="120" height="20" as="geometry" />
        </mxCell>
        <mxCell id="u7R29UACgoj_BLkv8fJI-21" value="" style="align=left;strokeColor=#CCCCCC;html=1;" vertex="1" parent="1">
          <mxGeometry x="-587" y="783" width="120" height="20" as="geometry" />
        </mxCell>
        <mxCell id="u7R29UACgoj_BLkv8fJI-22" value="" style="align=left;strokeColor=#CCCCCC;html=1;" vertex="1" parent="1">
          <mxGeometry x="-587" y="803" width="120" height="20" as="geometry" />
        </mxCell>
        <mxCell id="u7R29UACgoj_BLkv8fJI-23" value="" style="align=left;strokeColor=#CCCCCC;html=1;" vertex="1" parent="1">
          <mxGeometry x="-587" y="823" width="120" height="20" as="geometry" />
        </mxCell>
        <mxCell id="u7R29UACgoj_BLkv8fJI-24" value="" style="align=left;strokeColor=#CCCCCC;html=1;" vertex="1" parent="1">
          <mxGeometry x="-587" y="843" width="120" height="20" as="geometry" />
        </mxCell>
        <mxCell id="u7R29UACgoj_BLkv8fJI-25" value="" style="align=left;strokeColor=#CCCCCC;html=1;" vertex="1" parent="1">
          <mxGeometry x="-467" y="543" width="120" height="20" as="geometry" />
        </mxCell>
        <mxCell id="u7R29UACgoj_BLkv8fJI-26" value="" style="align=left;strokeColor=#CCCCCC;html=1;" vertex="1" parent="1">
          <mxGeometry x="-467" y="563" width="120" height="20" as="geometry" />
        </mxCell>
        <mxCell id="u7R29UACgoj_BLkv8fJI-27" value="" style="align=left;strokeColor=#CCCCCC;html=1;" vertex="1" parent="1">
          <mxGeometry x="-467" y="583" width="120" height="20" as="geometry" />
        </mxCell>
        <mxCell id="u7R29UACgoj_BLkv8fJI-28" value="" style="align=left;strokeColor=#CCCCCC;html=1;" vertex="1" parent="1">
          <mxGeometry x="-467" y="603" width="120" height="20" as="geometry" />
        </mxCell>
        <mxCell id="u7R29UACgoj_BLkv8fJI-29" value="" style="align=left;strokeColor=#CCCCCC;html=1;" vertex="1" parent="1">
          <mxGeometry x="-467" y="623" width="120" height="20" as="geometry" />
        </mxCell>
        <mxCell id="u7R29UACgoj_BLkv8fJI-30" value="" style="align=left;strokeColor=#CCCCCC;html=1;" vertex="1" parent="1">
          <mxGeometry x="-467" y="643" width="120" height="20" as="geometry" />
        </mxCell>
        <mxCell id="u7R29UACgoj_BLkv8fJI-31" value="" style="align=left;strokeColor=#CCCCCC;html=1;" vertex="1" parent="1">
          <mxGeometry x="-467" y="663" width="120" height="20" as="geometry" />
        </mxCell>
        <mxCell id="u7R29UACgoj_BLkv8fJI-32" value="" style="align=left;strokeColor=#CCCCCC;html=1;" vertex="1" parent="1">
          <mxGeometry x="-467" y="683" width="120" height="20" as="geometry" />
        </mxCell>
        <mxCell id="u7R29UACgoj_BLkv8fJI-33" value="" style="align=left;strokeColor=#CCCCCC;html=1;" vertex="1" parent="1">
          <mxGeometry x="-467" y="703" width="120" height="20" as="geometry" />
        </mxCell>
        <mxCell id="u7R29UACgoj_BLkv8fJI-34" value="" style="align=left;strokeColor=#CCCCCC;html=1;" vertex="1" parent="1">
          <mxGeometry x="-467" y="723" width="120" height="20" as="geometry" />
        </mxCell>
        <mxCell id="u7R29UACgoj_BLkv8fJI-35" value="" style="align=left;strokeColor=#CCCCCC;html=1;" vertex="1" parent="1">
          <mxGeometry x="-467" y="743" width="120" height="20" as="geometry" />
        </mxCell>
        <mxCell id="u7R29UACgoj_BLkv8fJI-36" value="" style="align=left;strokeColor=#CCCCCC;html=1;" vertex="1" parent="1">
          <mxGeometry x="-467" y="763" width="120" height="20" as="geometry" />
        </mxCell>
        <mxCell id="u7R29UACgoj_BLkv8fJI-37" value="" style="align=left;strokeColor=#CCCCCC;html=1;" vertex="1" parent="1">
          <mxGeometry x="-467" y="783" width="120" height="20" as="geometry" />
        </mxCell>
        <mxCell id="u7R29UACgoj_BLkv8fJI-38" value="" style="align=left;strokeColor=#CCCCCC;html=1;" vertex="1" parent="1">
          <mxGeometry x="-467" y="803" width="120" height="20" as="geometry" />
        </mxCell>
        <mxCell id="u7R29UACgoj_BLkv8fJI-39" value="" style="align=left;strokeColor=#CCCCCC;html=1;" vertex="1" parent="1">
          <mxGeometry x="-467" y="823" width="120" height="20" as="geometry" />
        </mxCell>
        <mxCell id="u7R29UACgoj_BLkv8fJI-40" value="" style="align=left;strokeColor=#CCCCCC;html=1;" vertex="1" parent="1">
          <mxGeometry x="-467" y="843" width="120" height="20" as="geometry" />
        </mxCell>
        <mxCell id="u7R29UACgoj_BLkv8fJI-41" value="" style="align=left;strokeColor=#CCCCCC;html=1;" vertex="1" parent="1">
          <mxGeometry x="-347" y="543" width="120" height="20" as="geometry" />
        </mxCell>
        <mxCell id="u7R29UACgoj_BLkv8fJI-42" value="" style="align=left;strokeColor=#CCCCCC;html=1;" vertex="1" parent="1">
          <mxGeometry x="-347" y="563" width="120" height="20" as="geometry" />
        </mxCell>
        <mxCell id="u7R29UACgoj_BLkv8fJI-43" value="" style="align=left;strokeColor=#CCCCCC;html=1;" vertex="1" parent="1">
          <mxGeometry x="-347" y="583" width="120" height="20" as="geometry" />
        </mxCell>
        <mxCell id="u7R29UACgoj_BLkv8fJI-44" value="" style="align=left;strokeColor=#CCCCCC;html=1;" vertex="1" parent="1">
          <mxGeometry x="-347" y="603" width="120" height="20" as="geometry" />
        </mxCell>
        <mxCell id="u7R29UACgoj_BLkv8fJI-45" value="" style="align=left;strokeColor=#CCCCCC;html=1;" vertex="1" parent="1">
          <mxGeometry x="-347" y="623" width="120" height="20" as="geometry" />
        </mxCell>
        <mxCell id="u7R29UACgoj_BLkv8fJI-46" value="" style="align=left;strokeColor=#CCCCCC;html=1;" vertex="1" parent="1">
          <mxGeometry x="-347" y="643" width="120" height="20" as="geometry" />
        </mxCell>
        <mxCell id="u7R29UACgoj_BLkv8fJI-47" value="" style="align=left;strokeColor=#CCCCCC;html=1;" vertex="1" parent="1">
          <mxGeometry x="-347" y="663" width="120" height="20" as="geometry" />
        </mxCell>
        <mxCell id="u7R29UACgoj_BLkv8fJI-48" value="" style="align=left;strokeColor=#CCCCCC;html=1;" vertex="1" parent="1">
          <mxGeometry x="-347" y="683" width="120" height="20" as="geometry" />
        </mxCell>
        <mxCell id="u7R29UACgoj_BLkv8fJI-49" value="" style="align=left;strokeColor=#CCCCCC;html=1;" vertex="1" parent="1">
          <mxGeometry x="-347" y="703" width="120" height="20" as="geometry" />
        </mxCell>
        <mxCell id="u7R29UACgoj_BLkv8fJI-50" value="" style="align=left;strokeColor=#CCCCCC;html=1;" vertex="1" parent="1">
          <mxGeometry x="-347" y="723" width="120" height="20" as="geometry" />
        </mxCell>
        <mxCell id="u7R29UACgoj_BLkv8fJI-51" value="" style="align=left;strokeColor=#CCCCCC;html=1;" vertex="1" parent="1">
          <mxGeometry x="-347" y="743" width="120" height="20" as="geometry" />
        </mxCell>
        <mxCell id="u7R29UACgoj_BLkv8fJI-52" value="" style="align=left;strokeColor=#CCCCCC;html=1;" vertex="1" parent="1">
          <mxGeometry x="-347" y="763" width="120" height="20" as="geometry" />
        </mxCell>
        <mxCell id="u7R29UACgoj_BLkv8fJI-53" value="" style="align=left;strokeColor=#CCCCCC;html=1;" vertex="1" parent="1">
          <mxGeometry x="-347" y="783" width="120" height="20" as="geometry" />
        </mxCell>
        <mxCell id="u7R29UACgoj_BLkv8fJI-54" value="" style="align=left;strokeColor=#CCCCCC;html=1;" vertex="1" parent="1">
          <mxGeometry x="-347" y="803" width="120" height="20" as="geometry" />
        </mxCell>
        <mxCell id="u7R29UACgoj_BLkv8fJI-55" value="" style="align=left;strokeColor=#CCCCCC;html=1;" vertex="1" parent="1">
          <mxGeometry x="-347" y="823" width="120" height="20" as="geometry" />
        </mxCell>
        <mxCell id="u7R29UACgoj_BLkv8fJI-56" value="" style="align=left;strokeColor=#CCCCCC;html=1;" vertex="1" parent="1">
          <mxGeometry x="-347" y="843" width="120" height="20" as="geometry" />
        </mxCell>
        <mxCell id="u7R29UACgoj_BLkv8fJI-57" value="" style="align=left;strokeColor=#CCCCCC;html=1;" vertex="1" parent="1">
          <mxGeometry x="-227" y="543" width="120" height="20" as="geometry" />
        </mxCell>
        <mxCell id="u7R29UACgoj_BLkv8fJI-58" value="" style="align=left;strokeColor=#CCCCCC;html=1;" vertex="1" parent="1">
          <mxGeometry x="-227" y="563" width="120" height="20" as="geometry" />
        </mxCell>
        <mxCell id="u7R29UACgoj_BLkv8fJI-59" value="" style="align=left;strokeColor=#CCCCCC;html=1;" vertex="1" parent="1">
          <mxGeometry x="-227" y="583" width="120" height="20" as="geometry" />
        </mxCell>
        <mxCell id="u7R29UACgoj_BLkv8fJI-60" value="" style="align=left;strokeColor=#CCCCCC;html=1;" vertex="1" parent="1">
          <mxGeometry x="-227" y="603" width="120" height="20" as="geometry" />
        </mxCell>
        <mxCell id="u7R29UACgoj_BLkv8fJI-61" value="" style="align=left;strokeColor=#CCCCCC;html=1;" vertex="1" parent="1">
          <mxGeometry x="-227" y="623" width="120" height="20" as="geometry" />
        </mxCell>
        <mxCell id="u7R29UACgoj_BLkv8fJI-62" value="" style="align=left;strokeColor=#CCCCCC;html=1;" vertex="1" parent="1">
          <mxGeometry x="-227" y="643" width="120" height="20" as="geometry" />
        </mxCell>
        <mxCell id="u7R29UACgoj_BLkv8fJI-63" value="" style="align=left;strokeColor=#CCCCCC;html=1;" vertex="1" parent="1">
          <mxGeometry x="-227" y="663" width="120" height="20" as="geometry" />
        </mxCell>
        <mxCell id="u7R29UACgoj_BLkv8fJI-64" value="" style="align=left;strokeColor=#CCCCCC;html=1;" vertex="1" parent="1">
          <mxGeometry x="-227" y="683" width="120" height="20" as="geometry" />
        </mxCell>
        <mxCell id="u7R29UACgoj_BLkv8fJI-65" value="" style="align=left;strokeColor=#CCCCCC;html=1;" vertex="1" parent="1">
          <mxGeometry x="-227" y="703" width="120" height="20" as="geometry" />
        </mxCell>
        <mxCell id="u7R29UACgoj_BLkv8fJI-66" value="" style="align=left;strokeColor=#CCCCCC;html=1;" vertex="1" parent="1">
          <mxGeometry x="-227" y="723" width="120" height="20" as="geometry" />
        </mxCell>
        <mxCell id="u7R29UACgoj_BLkv8fJI-67" value="" style="align=left;strokeColor=#CCCCCC;html=1;" vertex="1" parent="1">
          <mxGeometry x="-227" y="743" width="120" height="20" as="geometry" />
        </mxCell>
        <mxCell id="u7R29UACgoj_BLkv8fJI-68" value="" style="align=left;strokeColor=#CCCCCC;html=1;" vertex="1" parent="1">
          <mxGeometry x="-227" y="763" width="120" height="20" as="geometry" />
        </mxCell>
        <mxCell id="u7R29UACgoj_BLkv8fJI-69" value="" style="align=left;strokeColor=#CCCCCC;html=1;" vertex="1" parent="1">
          <mxGeometry x="-227" y="783" width="120" height="20" as="geometry" />
        </mxCell>
        <mxCell id="u7R29UACgoj_BLkv8fJI-70" value="" style="align=left;strokeColor=#CCCCCC;html=1;" vertex="1" parent="1">
          <mxGeometry x="-227" y="803" width="120" height="20" as="geometry" />
        </mxCell>
        <mxCell id="u7R29UACgoj_BLkv8fJI-71" value="" style="align=left;strokeColor=#CCCCCC;html=1;" vertex="1" parent="1">
          <mxGeometry x="-227" y="823" width="120" height="20" as="geometry" />
        </mxCell>
        <mxCell id="u7R29UACgoj_BLkv8fJI-72" value="" style="align=left;strokeColor=#CCCCCC;html=1;" vertex="1" parent="1">
          <mxGeometry x="-227" y="843" width="120" height="20" as="geometry" />
        </mxCell>
        <mxCell id="u7R29UACgoj_BLkv8fJI-73" value="" style="align=left;strokeColor=#CCCCCC;html=1;" vertex="1" parent="1">
          <mxGeometry x="-107" y="543" width="120" height="20" as="geometry" />
        </mxCell>
        <mxCell id="u7R29UACgoj_BLkv8fJI-74" value="" style="align=left;strokeColor=#CCCCCC;html=1;" vertex="1" parent="1">
          <mxGeometry x="-107" y="563" width="120" height="20" as="geometry" />
        </mxCell>
        <mxCell id="u7R29UACgoj_BLkv8fJI-75" value="" style="align=left;strokeColor=#CCCCCC;html=1;" vertex="1" parent="1">
          <mxGeometry x="-107" y="583" width="120" height="20" as="geometry" />
        </mxCell>
        <mxCell id="u7R29UACgoj_BLkv8fJI-76" value="" style="align=left;strokeColor=#CCCCCC;html=1;" vertex="1" parent="1">
          <mxGeometry x="-107" y="603" width="120" height="20" as="geometry" />
        </mxCell>
        <mxCell id="u7R29UACgoj_BLkv8fJI-77" value="" style="align=left;strokeColor=#CCCCCC;html=1;" vertex="1" parent="1">
          <mxGeometry x="-107" y="623" width="120" height="20" as="geometry" />
        </mxCell>
        <mxCell id="u7R29UACgoj_BLkv8fJI-78" value="" style="align=left;strokeColor=#CCCCCC;html=1;" vertex="1" parent="1">
          <mxGeometry x="-107" y="643" width="120" height="20" as="geometry" />
        </mxCell>
        <mxCell id="u7R29UACgoj_BLkv8fJI-79" value="" style="align=left;strokeColor=#CCCCCC;html=1;" vertex="1" parent="1">
          <mxGeometry x="-107" y="663" width="120" height="20" as="geometry" />
        </mxCell>
        <mxCell id="u7R29UACgoj_BLkv8fJI-80" value="" style="align=left;strokeColor=#CCCCCC;html=1;" vertex="1" parent="1">
          <mxGeometry x="-107" y="683" width="120" height="20" as="geometry" />
        </mxCell>
        <mxCell id="u7R29UACgoj_BLkv8fJI-81" value="" style="align=left;strokeColor=#CCCCCC;html=1;" vertex="1" parent="1">
          <mxGeometry x="-107" y="703" width="120" height="20" as="geometry" />
        </mxCell>
        <mxCell id="u7R29UACgoj_BLkv8fJI-82" value="" style="align=left;strokeColor=#CCCCCC;html=1;" vertex="1" parent="1">
          <mxGeometry x="-107" y="723" width="120" height="20" as="geometry" />
        </mxCell>
        <mxCell id="u7R29UACgoj_BLkv8fJI-83" value="" style="align=left;strokeColor=#CCCCCC;html=1;" vertex="1" parent="1">
          <mxGeometry x="-107" y="743" width="120" height="20" as="geometry" />
        </mxCell>
        <mxCell id="u7R29UACgoj_BLkv8fJI-84" value="" style="align=left;strokeColor=#CCCCCC;html=1;" vertex="1" parent="1">
          <mxGeometry x="-107" y="763" width="120" height="20" as="geometry" />
        </mxCell>
        <mxCell id="u7R29UACgoj_BLkv8fJI-85" value="" style="align=left;strokeColor=#CCCCCC;html=1;" vertex="1" parent="1">
          <mxGeometry x="-107" y="783" width="120" height="20" as="geometry" />
        </mxCell>
        <mxCell id="u7R29UACgoj_BLkv8fJI-86" value="" style="align=left;strokeColor=#CCCCCC;html=1;" vertex="1" parent="1">
          <mxGeometry x="-107" y="803" width="120" height="20" as="geometry" />
        </mxCell>
        <mxCell id="u7R29UACgoj_BLkv8fJI-87" value="" style="align=left;strokeColor=#CCCCCC;html=1;" vertex="1" parent="1">
          <mxGeometry x="-107" y="823" width="120" height="20" as="geometry" />
        </mxCell>
        <mxCell id="u7R29UACgoj_BLkv8fJI-88" value="" style="align=left;strokeColor=#CCCCCC;html=1;" vertex="1" parent="1">
          <mxGeometry x="-107" y="843" width="120" height="20" as="geometry" />
        </mxCell>
        <mxCell id="u7R29UACgoj_BLkv8fJI-89" value="" style="align=left;strokeColor=#CCCCCC;html=1;" vertex="1" parent="1">
          <mxGeometry x="13" y="543" width="120" height="20" as="geometry" />
        </mxCell>
        <mxCell id="u7R29UACgoj_BLkv8fJI-90" value="" style="align=left;strokeColor=#CCCCCC;html=1;" vertex="1" parent="1">
          <mxGeometry x="13" y="563" width="120" height="20" as="geometry" />
        </mxCell>
        <mxCell id="u7R29UACgoj_BLkv8fJI-91" value="" style="align=left;strokeColor=#CCCCCC;html=1;" vertex="1" parent="1">
          <mxGeometry x="13" y="583" width="120" height="20" as="geometry" />
        </mxCell>
        <mxCell id="u7R29UACgoj_BLkv8fJI-92" value="" style="align=left;strokeColor=#CCCCCC;html=1;" vertex="1" parent="1">
          <mxGeometry x="13" y="603" width="120" height="20" as="geometry" />
        </mxCell>
        <mxCell id="u7R29UACgoj_BLkv8fJI-93" value="" style="align=left;strokeColor=#CCCCCC;html=1;" vertex="1" parent="1">
          <mxGeometry x="13" y="623" width="120" height="20" as="geometry" />
        </mxCell>
        <mxCell id="u7R29UACgoj_BLkv8fJI-94" value="" style="align=left;strokeColor=#CCCCCC;html=1;" vertex="1" parent="1">
          <mxGeometry x="13" y="643" width="120" height="20" as="geometry" />
        </mxCell>
        <mxCell id="u7R29UACgoj_BLkv8fJI-95" value="" style="align=left;strokeColor=#CCCCCC;html=1;" vertex="1" parent="1">
          <mxGeometry x="13" y="663" width="120" height="20" as="geometry" />
        </mxCell>
        <mxCell id="u7R29UACgoj_BLkv8fJI-96" value="" style="align=left;strokeColor=#CCCCCC;html=1;" vertex="1" parent="1">
          <mxGeometry x="13" y="683" width="120" height="20" as="geometry" />
        </mxCell>
        <mxCell id="u7R29UACgoj_BLkv8fJI-97" value="" style="align=left;strokeColor=#CCCCCC;html=1;" vertex="1" parent="1">
          <mxGeometry x="13" y="703" width="120" height="20" as="geometry" />
        </mxCell>
        <mxCell id="u7R29UACgoj_BLkv8fJI-98" value="" style="align=left;strokeColor=#CCCCCC;html=1;" vertex="1" parent="1">
          <mxGeometry x="13" y="723" width="120" height="20" as="geometry" />
        </mxCell>
        <mxCell id="u7R29UACgoj_BLkv8fJI-99" value="" style="align=left;strokeColor=#CCCCCC;html=1;" vertex="1" parent="1">
          <mxGeometry x="13" y="743" width="120" height="20" as="geometry" />
        </mxCell>
        <mxCell id="u7R29UACgoj_BLkv8fJI-100" value="" style="align=left;strokeColor=#CCCCCC;html=1;" vertex="1" parent="1">
          <mxGeometry x="13" y="763" width="120" height="20" as="geometry" />
        </mxCell>
        <mxCell id="u7R29UACgoj_BLkv8fJI-101" value="" style="align=left;strokeColor=#CCCCCC;html=1;" vertex="1" parent="1">
          <mxGeometry x="13" y="783" width="120" height="20" as="geometry" />
        </mxCell>
        <mxCell id="u7R29UACgoj_BLkv8fJI-102" value="" style="align=left;strokeColor=#CCCCCC;html=1;" vertex="1" parent="1">
          <mxGeometry x="13" y="803" width="120" height="20" as="geometry" />
        </mxCell>
        <mxCell id="u7R29UACgoj_BLkv8fJI-103" value="" style="align=left;strokeColor=#CCCCCC;html=1;" vertex="1" parent="1">
          <mxGeometry x="13" y="823" width="120" height="20" as="geometry" />
        </mxCell>
        <mxCell id="u7R29UACgoj_BLkv8fJI-104" value="" style="align=left;strokeColor=#CCCCCC;html=1;" vertex="1" parent="1">
          <mxGeometry x="13" y="843" width="120" height="20" as="geometry" />
        </mxCell>
        <mxCell id="u7R29UACgoj_BLkv8fJI-105" value="W1" style="strokeWidth=1;fontStyle=0;html=1;gradientColor=#b3b3b3;strokeColor=#666666;fillColor=#FFFFFF;" vertex="1" parent="1">
          <mxGeometry x="-347" y="523" width="30" height="20" as="geometry" />
        </mxCell>
        <mxCell id="u7R29UACgoj_BLkv8fJI-106" value="W2" style="strokeWidth=1;fontStyle=0;html=1;gradientColor=#b3b3b3;strokeColor=#666666;fillColor=#FFFFFF;" vertex="1" parent="1">
          <mxGeometry x="-317" y="523" width="30" height="20" as="geometry" />
        </mxCell>
        <mxCell id="u7R29UACgoj_BLkv8fJI-107" value="W3" style="strokeWidth=1;fontStyle=0;html=1;gradientColor=#b3b3b3;strokeColor=#666666;fillColor=#FFFFFF;" vertex="1" parent="1">
          <mxGeometry x="-287" y="523" width="30" height="20" as="geometry" />
        </mxCell>
        <mxCell id="u7R29UACgoj_BLkv8fJI-108" value="W4" style="strokeWidth=1;fontStyle=0;html=1;gradientColor=#b3b3b3;strokeColor=#666666;fillColor=#FFFFFF;" vertex="1" parent="1">
          <mxGeometry x="-257" y="523" width="30" height="20" as="geometry" />
        </mxCell>
        <mxCell id="u7R29UACgoj_BLkv8fJI-109" value="W1" style="strokeWidth=1;fontStyle=0;html=1;gradientColor=#b3b3b3;strokeColor=#666666;fillColor=#FFFFFF;" vertex="1" parent="1">
          <mxGeometry x="-227" y="523" width="30" height="20" as="geometry" />
        </mxCell>
        <mxCell id="u7R29UACgoj_BLkv8fJI-110" value="W2" style="strokeWidth=1;fontStyle=0;html=1;gradientColor=#b3b3b3;strokeColor=#666666;fillColor=#FFFFFF;" vertex="1" parent="1">
          <mxGeometry x="-197" y="523" width="30" height="20" as="geometry" />
        </mxCell>
        <mxCell id="u7R29UACgoj_BLkv8fJI-111" value="W3" style="strokeWidth=1;fontStyle=0;html=1;gradientColor=#b3b3b3;strokeColor=#666666;fillColor=#FFFFFF;" vertex="1" parent="1">
          <mxGeometry x="-167" y="523" width="30" height="20" as="geometry" />
        </mxCell>
        <mxCell id="u7R29UACgoj_BLkv8fJI-112" value="W4" style="strokeWidth=1;fontStyle=0;html=1;gradientColor=#b3b3b3;strokeColor=#666666;fillColor=#FFFFFF;" vertex="1" parent="1">
          <mxGeometry x="-137" y="523" width="30" height="20" as="geometry" />
        </mxCell>
        <mxCell id="u7R29UACgoj_BLkv8fJI-113" value="W1" style="strokeWidth=1;fontStyle=0;html=1;gradientColor=#b3b3b3;strokeColor=#666666;fillColor=#FFFFFF;" vertex="1" parent="1">
          <mxGeometry x="-107" y="523" width="30" height="20" as="geometry" />
        </mxCell>
        <mxCell id="u7R29UACgoj_BLkv8fJI-114" value="W2" style="strokeWidth=1;fontStyle=0;html=1;gradientColor=#b3b3b3;strokeColor=#666666;fillColor=#FFFFFF;" vertex="1" parent="1">
          <mxGeometry x="-77" y="523" width="30" height="20" as="geometry" />
        </mxCell>
        <mxCell id="u7R29UACgoj_BLkv8fJI-115" value="W3" style="strokeWidth=1;fontStyle=0;html=1;gradientColor=#b3b3b3;strokeColor=#666666;fillColor=#FFFFFF;" vertex="1" parent="1">
          <mxGeometry x="-47" y="523" width="30" height="20" as="geometry" />
        </mxCell>
        <mxCell id="u7R29UACgoj_BLkv8fJI-116" value="W4" style="strokeWidth=1;fontStyle=0;html=1;gradientColor=#b3b3b3;strokeColor=#666666;fillColor=#FFFFFF;" vertex="1" parent="1">
          <mxGeometry x="-17" y="523" width="30" height="20" as="geometry" />
        </mxCell>
        <mxCell id="u7R29UACgoj_BLkv8fJI-117" value="W1" style="strokeWidth=1;fontStyle=0;html=1;gradientColor=#b3b3b3;strokeColor=#666666;fillColor=#FFFFFF;" vertex="1" parent="1">
          <mxGeometry x="13" y="523" width="30" height="20" as="geometry" />
        </mxCell>
        <mxCell id="u7R29UACgoj_BLkv8fJI-118" value="W2" style="strokeWidth=1;fontStyle=0;html=1;gradientColor=#b3b3b3;strokeColor=#666666;fillColor=#FFFFFF;" vertex="1" parent="1">
          <mxGeometry x="43" y="523" width="30" height="20" as="geometry" />
        </mxCell>
        <mxCell id="u7R29UACgoj_BLkv8fJI-119" value="W3" style="strokeWidth=1;fontStyle=0;html=1;gradientColor=#b3b3b3;strokeColor=#666666;fillColor=#FFFFFF;" vertex="1" parent="1">
          <mxGeometry x="73" y="523" width="30" height="20" as="geometry" />
        </mxCell>
        <mxCell id="u7R29UACgoj_BLkv8fJI-120" value="W4" style="strokeWidth=1;fontStyle=0;html=1;gradientColor=#b3b3b3;strokeColor=#666666;fillColor=#FFFFFF;" vertex="1" parent="1">
          <mxGeometry x="103" y="523" width="30" height="20" as="geometry" />
        </mxCell>
        <mxCell id="u7R29UACgoj_BLkv8fJI-121" value="W1" style="strokeWidth=1;fontStyle=0;html=1;gradientColor=#b3b3b3;strokeColor=#666666;fillColor=#FFFFFF;" vertex="1" parent="1">
          <mxGeometry x="-467" y="523" width="30" height="20" as="geometry" />
        </mxCell>
        <mxCell id="u7R29UACgoj_BLkv8fJI-122" value="W2" style="strokeWidth=1;fontStyle=0;html=1;gradientColor=#b3b3b3;strokeColor=#666666;fillColor=#FFFFFF;" vertex="1" parent="1">
          <mxGeometry x="-437" y="523" width="30" height="20" as="geometry" />
        </mxCell>
        <mxCell id="u7R29UACgoj_BLkv8fJI-123" value="W3" style="strokeWidth=1;fontStyle=0;html=1;gradientColor=#b3b3b3;strokeColor=#666666;fillColor=#FFFFFF;" vertex="1" parent="1">
          <mxGeometry x="-407" y="523" width="30" height="20" as="geometry" />
        </mxCell>
        <mxCell id="u7R29UACgoj_BLkv8fJI-124" value="W4" style="strokeWidth=1;fontStyle=0;html=1;gradientColor=#b3b3b3;strokeColor=#666666;fillColor=#FFFFFF;" vertex="1" parent="1">
          <mxGeometry x="-377" y="523" width="30" height="20" as="geometry" />
        </mxCell>
        <mxCell id="u7R29UACgoj_BLkv8fJI-125" value="W1" style="strokeWidth=1;fontStyle=0;html=1;gradientColor=#b3b3b3;strokeColor=#666666;shadow=0;fillColor=#FFFFFF;" vertex="1" parent="1">
          <mxGeometry x="-587" y="523" width="30" height="20" as="geometry" />
        </mxCell>
        <mxCell id="u7R29UACgoj_BLkv8fJI-126" value="W2" style="strokeWidth=1;fontStyle=0;html=1;gradientColor=#b3b3b3;strokeColor=#666666;shadow=0;fillColor=#FFFFFF;" vertex="1" parent="1">
          <mxGeometry x="-557" y="523" width="30" height="20" as="geometry" />
        </mxCell>
        <mxCell id="u7R29UACgoj_BLkv8fJI-127" value="W3" style="strokeWidth=1;fontStyle=0;html=1;gradientColor=#b3b3b3;strokeColor=#666666;shadow=0;fillColor=#FFFFFF;" vertex="1" parent="1">
          <mxGeometry x="-527" y="523" width="30" height="20" as="geometry" />
        </mxCell>
        <mxCell id="u7R29UACgoj_BLkv8fJI-128" value="W4" style="strokeWidth=1;fontStyle=0;html=1;gradientColor=#b3b3b3;strokeColor=#666666;shadow=0;fillColor=#FFFFFF;" vertex="1" parent="1">
          <mxGeometry x="-497" y="523" width="30" height="20" as="geometry" />
        </mxCell>
        <mxCell id="u7R29UACgoj_BLkv8fJI-129" value="Task 1" style="align=left;strokeColor=#d6b656;html=1;gradientColor=#ffd966;fillColor=#fff2cc;" vertex="1" parent="1">
          <mxGeometry x="-587" y="543" width="60" height="20" as="geometry" />
        </mxCell>
        <mxCell id="u7R29UACgoj_BLkv8fJI-130" value="Task 2" style="align=left;strokeColor=#d6b656;html=1;fillColor=#fff2cc;gradientColor=#ffd966;" vertex="1" parent="1">
          <mxGeometry x="-557" y="563" width="60" height="20" as="geometry" />
        </mxCell>
        <mxCell id="u7R29UACgoj_BLkv8fJI-131" value="Task 3" style="align=left;strokeColor=#d79b00;html=1;fillColor=#ffcd28;gradientColor=#ffa500;" vertex="1" parent="1">
          <mxGeometry x="-527" y="583" width="60" height="20" as="geometry" />
        </mxCell>
        <mxCell id="u7R29UACgoj_BLkv8fJI-132" value="Task 4" style="align=left;strokeColor=#d79b00;html=1;fillColor=#ffcd28;gradientColor=#ffa500;" vertex="1" parent="1">
          <mxGeometry x="-527" y="603" width="60" height="20" as="geometry" />
        </mxCell>
        <mxCell id="u7R29UACgoj_BLkv8fJI-133" value="Task 5" style="align=left;strokeColor=#b85450;html=1;fillColor=#f8cecc;gradientColor=#ea6b66;" vertex="1" parent="1">
          <mxGeometry x="-497" y="623" width="60" height="20" as="geometry" />
        </mxCell>
        <mxCell id="u7R29UACgoj_BLkv8fJI-134" value="Task 6" style="align=left;strokeColor=#b85450;html=1;fillColor=#f8cecc;gradientColor=#ea6b66;" vertex="1" parent="1">
          <mxGeometry x="-497" y="643" width="60" height="20" as="geometry" />
        </mxCell>
        <mxCell id="u7R29UACgoj_BLkv8fJI-135" value="Task 7" style="align=left;strokeColor=#b85450;html=1;fillColor=#f8cecc;gradientColor=#ea6b66;" vertex="1" parent="1">
          <mxGeometry x="-497" y="663" width="90" height="20" as="geometry" />
        </mxCell>
        <mxCell id="u7R29UACgoj_BLkv8fJI-136" value="Task 8" style="align=left;strokeColor=#996185;html=1;fillColor=#e6d0de;gradientColor=#d5739d;" vertex="1" parent="1">
          <mxGeometry x="-437" y="683" width="90" height="20" as="geometry" />
        </mxCell>
        <mxCell id="u7R29UACgoj_BLkv8fJI-137" value="Task 9" style="align=left;strokeColor=#6c8ebf;html=1;fillColor=#dae8fc;gradientColor=#7ea6e0;" vertex="1" parent="1">
          <mxGeometry x="-407" y="703" width="60" height="20" as="geometry" />
        </mxCell>
        <mxCell id="u7R29UACgoj_BLkv8fJI-138" value="Task 10" style="align=left;strokeColor=#6c8ebf;html=1;fillColor=#dae8fc;gradientColor=#7ea6e0;" vertex="1" parent="1">
          <mxGeometry x="-377" y="723" width="120" height="20" as="geometry" />
        </mxCell>
        <mxCell id="u7R29UACgoj_BLkv8fJI-139" value="Task 11" style="align=left;strokeColor=#6c8ebf;html=1;fillColor=#dae8fc;gradientColor=#7ea6e0;" vertex="1" parent="1">
          <mxGeometry x="-347" y="744" width="150" height="20" as="geometry" />
        </mxCell>
        <mxCell id="u7R29UACgoj_BLkv8fJI-140" value="Task 16" style="align=left;html=1;fillColor=#dae8fc;gradientColor=#A680B8;strokeColor=#A680B8;" vertex="1" parent="1">
          <mxGeometry x="-47" y="844" width="120" height="20" as="geometry" />
        </mxCell>
        <mxCell id="u7R29UACgoj_BLkv8fJI-141" value="Task 15" style="align=left;html=1;fillColor=#dae8fc;gradientColor=#A680B8;strokeColor=#A680B8;" vertex="1" parent="1">
          <mxGeometry x="-107" y="823" width="180" height="20" as="geometry" />
        </mxCell>
        <mxCell id="u7R29UACgoj_BLkv8fJI-142" value="Task 14" style="align=left;strokeColor=#82b366;html=1;fillColor=#d5e8d4;gradientColor=#97d077;" vertex="1" parent="1">
          <mxGeometry x="-107" y="803" width="180" height="20" as="geometry" />
        </mxCell>
        <mxCell id="u7R29UACgoj_BLkv8fJI-143" value="주제선정 및 자료조사" style="align=left;strokeColor=#d6b656;html=1;fillColor=#fff2cc;sketch=0;fillStyle=auto;gradientColor=#ffd966;" vertex="1" parent="1">
          <mxGeometry x="-707" y="543" width="120" height="20" as="geometry" />
        </mxCell>
        <mxCell id="u7R29UACgoj_BLkv8fJI-144" value="시스템 구조도 작성" style="align=left;strokeColor=#d79b00;html=1;fillColor=#ffcd28;sketch=0;gradientColor=#ffa500;" vertex="1" parent="1">
          <mxGeometry x="-707" y="583" width="120" height="20" as="geometry" />
        </mxCell>
        <mxCell id="u7R29UACgoj_BLkv8fJI-145" value="시스템 요구사항 분석" style="align=left;strokeColor=#d6b656;html=1;fillColor=#fff2cc;sketch=0;gradientColor=#ffd966;" vertex="1" parent="1">
          <mxGeometry x="-707" y="563" width="120" height="20" as="geometry" />
        </mxCell>
        <mxCell id="u7R29UACgoj_BLkv8fJI-146" value="데이터베이스 설계" style="align=left;strokeColor=#b85450;html=1;fillColor=#f8cecc;rounded=0;shadow=0;sketch=0;gradientColor=#ea6b66;" vertex="1" parent="1">
          <mxGeometry x="-707" y="623" width="120" height="20" as="geometry" />
        </mxCell>
        <mxCell id="u7R29UACgoj_BLkv8fJI-147" value="웹사이트 구조도 작성" style="align=left;strokeColor=#d79b00;html=1;fillColor=#ffcd28;sketch=0;gradientColor=#ffa500;" vertex="1" parent="1">
          <mxGeometry x="-707" y="603" width="120" height="20" as="geometry" />
        </mxCell>
        <mxCell id="u7R29UACgoj_BLkv8fJI-148" value="데이터베이스 구축" style="align=left;strokeColor=#b85450;html=1;fillColor=#f8cecc;gradientColor=#ea6b66;" vertex="1" parent="1">
          <mxGeometry x="-707" y="663" width="120" height="20" as="geometry" />
        </mxCell>
        <mxCell id="u7R29UACgoj_BLkv8fJI-149" value="테이블 명세서 작성" style="align=left;strokeColor=#b85450;html=1;fillColor=#f8cecc;gradientColor=#ea6b66;" vertex="1" parent="1">
          <mxGeometry x="-707" y="643" width="120" height="20" as="geometry" />
        </mxCell>
        <mxCell id="u7R29UACgoj_BLkv8fJI-150" value="회원가입 로그인 구현" style="align=left;strokeColor=#6c8ebf;html=1;fillColor=#dae8fc;gradientColor=#7ea6e0;" vertex="1" parent="1">
          <mxGeometry x="-707" y="703" width="120" height="20" as="geometry" />
        </mxCell>
        <mxCell id="u7R29UACgoj_BLkv8fJI-151" value="화면 구성 및 UI구현" style="align=left;strokeColor=#996185;html=1;fillColor=#e6d0de;gradientColor=#d5739d;" vertex="1" parent="1">
          <mxGeometry x="-707" y="683" width="120" height="20" as="geometry" />
        </mxCell>
        <mxCell id="u7R29UACgoj_BLkv8fJI-152" value="게시판 API 수정 보완" style="align=left;strokeColor=#6c8ebf;html=1;fillColor=#dae8fc;gradientColor=#7ea6e0;" vertex="1" parent="1">
          <mxGeometry x="-707" y="743" width="120" height="20" as="geometry" />
        </mxCell>
        <mxCell id="u7R29UACgoj_BLkv8fJI-153" value="게시판 API 구현" style="align=left;strokeColor=#6c8ebf;html=1;fillColor=#dae8fc;gradientColor=#7ea6e0;" vertex="1" parent="1">
          <mxGeometry x="-707" y="723" width="120" height="20" as="geometry" />
        </mxCell>
        <mxCell id="u7R29UACgoj_BLkv8fJI-154" value="&lt;font style=&quot;font-size: 10px&quot;&gt;애플리케이션배포유지보수&lt;/font&gt;" style="align=left;strokeColor=#82b366;html=1;fillColor=#d5e8d4;gradientColor=#97d077;" vertex="1" parent="1">
          <mxGeometry x="-707" y="803" width="120" height="20" as="geometry" />
        </mxCell>
        <mxCell id="u7R29UACgoj_BLkv8fJI-155" value="1" style="rounded=0;whiteSpace=wrap;html=1;strokeColor=#666666;fillColor=#f5f5f5;gradientColor=#b3b3b3;" vertex="1" parent="1">
          <mxGeometry x="-727" y="543" width="20" height="20" as="geometry" />
        </mxCell>
        <mxCell id="u7R29UACgoj_BLkv8fJI-156" value="2" style="rounded=0;whiteSpace=wrap;html=1;strokeColor=#666666;fillColor=#f5f5f5;gradientColor=#b3b3b3;" vertex="1" parent="1">
          <mxGeometry x="-727" y="563" width="20" height="20" as="geometry" />
        </mxCell>
        <mxCell id="u7R29UACgoj_BLkv8fJI-157" value="3" style="rounded=0;whiteSpace=wrap;html=1;strokeColor=#666666;fillColor=#f5f5f5;gradientColor=#b3b3b3;" vertex="1" parent="1">
          <mxGeometry x="-727" y="583" width="20" height="20" as="geometry" />
        </mxCell>
        <mxCell id="u7R29UACgoj_BLkv8fJI-158" value="4" style="rounded=0;whiteSpace=wrap;html=1;strokeColor=#666666;fillColor=#f5f5f5;gradientColor=#b3b3b3;" vertex="1" parent="1">
          <mxGeometry x="-727" y="603" width="20" height="20" as="geometry" />
        </mxCell>
        <mxCell id="u7R29UACgoj_BLkv8fJI-159" value="5" style="rounded=0;whiteSpace=wrap;html=1;strokeColor=#666666;fillColor=#f5f5f5;gradientColor=#b3b3b3;" vertex="1" parent="1">
          <mxGeometry x="-727" y="623" width="20" height="20" as="geometry" />
        </mxCell>
        <mxCell id="u7R29UACgoj_BLkv8fJI-160" value="6" style="rounded=0;whiteSpace=wrap;html=1;strokeColor=#666666;fillColor=#f5f5f5;gradientColor=#b3b3b3;" vertex="1" parent="1">
          <mxGeometry x="-727" y="643" width="20" height="20" as="geometry" />
        </mxCell>
        <mxCell id="u7R29UACgoj_BLkv8fJI-161" value="7" style="rounded=0;whiteSpace=wrap;html=1;strokeColor=#666666;fillColor=#f5f5f5;gradientColor=#b3b3b3;" vertex="1" parent="1">
          <mxGeometry x="-727" y="663" width="20" height="20" as="geometry" />
        </mxCell>
        <mxCell id="u7R29UACgoj_BLkv8fJI-162" value="8" style="rounded=0;whiteSpace=wrap;html=1;strokeColor=#666666;fillColor=#f5f5f5;gradientColor=#b3b3b3;" vertex="1" parent="1">
          <mxGeometry x="-727" y="683" width="20" height="20" as="geometry" />
        </mxCell>
        <mxCell id="u7R29UACgoj_BLkv8fJI-163" value="9" style="rounded=0;whiteSpace=wrap;html=1;strokeColor=#666666;fillColor=#f5f5f5;gradientColor=#b3b3b3;" vertex="1" parent="1">
          <mxGeometry x="-727" y="703" width="20" height="20" as="geometry" />
        </mxCell>
        <mxCell id="u7R29UACgoj_BLkv8fJI-164" value="10" style="rounded=0;whiteSpace=wrap;html=1;strokeColor=#666666;fillColor=#f5f5f5;gradientColor=#b3b3b3;" vertex="1" parent="1">
          <mxGeometry x="-727" y="723" width="20" height="20" as="geometry" />
        </mxCell>
        <mxCell id="u7R29UACgoj_BLkv8fJI-165" value="11" style="rounded=0;whiteSpace=wrap;html=1;strokeColor=#666666;fillColor=#f5f5f5;gradientColor=#b3b3b3;" vertex="1" parent="1">
          <mxGeometry x="-727" y="743" width="20" height="20" as="geometry" />
        </mxCell>
        <mxCell id="u7R29UACgoj_BLkv8fJI-166" value="12" style="rounded=0;whiteSpace=wrap;html=1;strokeColor=#666666;fillColor=#f5f5f5;gradientColor=#b3b3b3;" vertex="1" parent="1">
          <mxGeometry x="-727" y="763" width="20" height="20" as="geometry" />
        </mxCell>
        <mxCell id="u7R29UACgoj_BLkv8fJI-167" value="13" style="rounded=0;whiteSpace=wrap;html=1;strokeColor=#666666;fillColor=#f5f5f5;gradientColor=#b3b3b3;" vertex="1" parent="1">
          <mxGeometry x="-727" y="783" width="20" height="20" as="geometry" />
        </mxCell>
        <mxCell id="u7R29UACgoj_BLkv8fJI-168" value="15" style="rounded=0;whiteSpace=wrap;html=1;strokeColor=#666666;fillColor=#f5f5f5;gradientColor=#b3b3b3;" vertex="1" parent="1">
          <mxGeometry x="-727" y="823" width="20" height="20" as="geometry" />
        </mxCell>
        <mxCell id="u7R29UACgoj_BLkv8fJI-169" value="14" style="rounded=0;whiteSpace=wrap;html=1;strokeColor=#666666;fillColor=#f5f5f5;gradientColor=#b3b3b3;" vertex="1" parent="1">
          <mxGeometry x="-727" y="803" width="20" height="20" as="geometry" />
        </mxCell>
        <mxCell id="u7R29UACgoj_BLkv8fJI-170" value="16" style="rounded=0;whiteSpace=wrap;html=1;strokeColor=#666666;fillColor=#f5f5f5;gradientColor=#b3b3b3;" vertex="1" parent="1">
          <mxGeometry x="-727" y="843" width="20" height="20" as="geometry" />
        </mxCell>
        <mxCell id="u7R29UACgoj_BLkv8fJI-171" value="TASKS" style="rounded=0;whiteSpace=wrap;html=1;strokeColor=#666666;fillColor=#f5f5f5;gradientColor=#b3b3b3;" vertex="1" parent="1">
          <mxGeometry x="-707" y="503" width="120" height="39" as="geometry" />
        </mxCell>
        <mxCell id="u7R29UACgoj_BLkv8fJI-172" value="NO" style="rounded=0;whiteSpace=wrap;html=1;gradientColor=#b3b3b3;fillColor=#f5f5f5;strokeColor=#666666;" vertex="1" parent="1">
          <mxGeometry x="-727" y="503" width="20" height="39" as="geometry" />
        </mxCell>
        <mxCell id="u7R29UACgoj_BLkv8fJI-173" value="Task 12" style="align=left;strokeColor=#82b366;html=1;fillColor=#d5e8d4;gradientColor=#97d077;" vertex="1" parent="1">
          <mxGeometry x="-227" y="764" width="120" height="20" as="geometry" />
        </mxCell>
        <mxCell id="u7R29UACgoj_BLkv8fJI-174" value="&lt;font style=&quot;font-size: 11px&quot;&gt;애플리케이션배포테스트&lt;/font&gt;" style="align=left;strokeColor=#82b366;html=1;fillColor=#d5e8d4;gradientColor=#97d077;" vertex="1" parent="1">
          <mxGeometry x="-707" y="764" width="120" height="20" as="geometry" />
        </mxCell>
        <mxCell id="u7R29UACgoj_BLkv8fJI-175" value="요구사항 확인 테스트" style="align=left;strokeColor=#82b366;html=1;fillColor=#d5e8d4;gradientColor=#97d077;" vertex="1" parent="1">
          <mxGeometry x="-707" y="783" width="120" height="20" as="geometry" />
        </mxCell>
        <mxCell id="u7R29UACgoj_BLkv8fJI-176" style="edgeStyle=orthogonalEdgeStyle;rounded=0;orthogonalLoop=1;jettySize=auto;html=1;exitX=0.75;exitY=1;exitDx=0;exitDy=0;" edge="1" parent="1" source="u7R29UACgoj_BLkv8fJI-177">
          <mxGeometry relative="1" as="geometry">
            <mxPoint x="-617.1428571428571" y="853.9999999999998" as="targetPoint" />
          </mxGeometry>
        </mxCell>
        <mxCell id="u7R29UACgoj_BLkv8fJI-177" value="&lt;font style=&quot;font-size: 11px&quot;&gt;설문조사 API 수정보완&lt;/font&gt;" style="align=left;html=1;fillColor=#dae8fc;gradientColor=#A680B8;strokeColor=#A680B8;" vertex="1" parent="1">
          <mxGeometry x="-707" y="844" width="120" height="20" as="geometry" />
        </mxCell>
        <mxCell id="u7R29UACgoj_BLkv8fJI-178" value="Task 13" style="align=left;strokeColor=#82b366;html=1;fillColor=#d5e8d4;gradientColor=#97d077;" vertex="1" parent="1">
          <mxGeometry x="-167" y="783" width="120" height="20" as="geometry" />
        </mxCell>
        <mxCell id="u7R29UACgoj_BLkv8fJI-179" value="설문조사 API 구현" style="align=left;html=1;fillColor=#dae8fc;gradientColor=#A680B8;strokeColor=#A680B8;" vertex="1" parent="1">
          <mxGeometry x="-707" y="823" width="120" height="20" as="geometry" />
        </mxCell>
      </root>
    </mxGraphModel>
  </diagram>
</mxfile>
